<svg width="36" height="37" viewBox="0 0 36 37" fill="none" xmlns="http://www.w3.org/2000/svg">
<g clip-path="url(#clip0_423_92)">
<path d="M18.09 21.09C17.5516 21.0941 17.0301 21.2783 16.6086 21.6133C16.1871 21.9484 15.89 22.4149 15.7646 22.9385C15.6391 23.4621 15.6926 24.0126 15.9166 24.5022C16.1405 24.9919 16.5219 25.3924 17 25.64V28.5H19V25.73C19.5163 25.5184 19.9432 25.1342 20.2079 24.6429C20.4725 24.1516 20.5585 23.5838 20.4511 23.0362C20.3437 22.4886 20.0496 21.9953 19.619 21.6403C19.1884 21.2854 18.648 21.0909 18.09 21.09Z" fill="#778899"/>
<path d="M26 15.5V11.22C26.0429 9.05189 25.2253 6.95504 23.726 5.38829C22.2268 3.82154 20.1679 2.91247 18 2.86C15.8321 2.91247 13.7732 3.82154 12.274 5.38829C10.7747 6.95504 9.95705 9.05189 10 11.22V15.5H7V32.5C7 33.0304 7.21071 33.5391 7.58579 33.9142C7.96086 34.2893 8.46957 34.5 9 34.5H27C27.5304 34.5 28.0391 34.2893 28.4142 33.9142C28.7893 33.5391 29 33.0304 29 32.5V15.5H26ZM12 11.22C11.9569 9.58224 12.5638 7.99399 13.688 6.80228C14.8123 5.61057 16.3625 4.91228 18 4.86C19.6375 4.91228 21.1877 5.61057 22.312 6.80228C23.4362 7.99399 24.0431 9.58224 24 11.22V15.5H12V11.22ZM9 32.5V17.5H27V32.5H9Z" fill="#778899"/>
</g>
<defs>
<clipPath id="clip0_423_92">
<rect width="36" height="36" fill="white" transform="translate(0 0.5)"/>
</clipPath>
</defs>
</svg>
