<svg width="36" height="37" viewBox="0 0 36 37" fill="none" xmlns="http://www.w3.org/2000/svg">
<g clip-path="url(#clip0_423_9)">
<path d="M18 17.5C19.3845 17.5 20.7378 17.0895 21.889 16.3203C23.0401 15.5511 23.9373 14.4579 24.4672 13.1788C24.997 11.8997 25.1356 10.4922 24.8655 9.13437C24.5954 7.7765 23.9287 6.52922 22.9497 5.55026C21.9708 4.57129 20.7235 3.9046 19.3656 3.63451C18.0078 3.36441 16.6003 3.50303 15.3212 4.03285C14.0421 4.56266 12.9489 5.45987 12.1797 6.61101C11.4105 7.76216 11 9.11553 11 10.5C11 12.3565 11.7375 14.137 13.0503 15.4497C14.363 16.7625 16.1435 17.5 18 17.5ZM18 5.5C18.9889 5.5 19.9556 5.79325 20.7779 6.34265C21.6001 6.89206 22.241 7.67296 22.6194 8.58659C22.9978 9.50022 23.0969 10.5055 22.9039 11.4755C22.711 12.4454 22.2348 13.3363 21.5355 14.0355C20.8363 14.7348 19.9454 15.211 18.9755 15.4039C18.0055 15.5969 17.0002 15.4978 16.0866 15.1194C15.173 14.741 14.3921 14.1001 13.8427 13.2779C13.2932 12.4556 13 11.4889 13 10.5C13 9.17392 13.5268 7.90215 14.4645 6.96447C15.4021 6.02679 16.6739 5.5 18 5.5Z" fill="#778899"/>
<path d="M30.47 24.87C28.8663 23.175 26.9338 21.8249 24.7905 20.9022C22.6473 19.9795 20.3384 19.5036 18.005 19.5036C15.6716 19.5036 13.3627 19.9795 11.2195 20.9022C9.07623 21.8249 7.14369 23.175 5.54 24.87C5.19231 25.2414 4.99921 25.7313 5 26.24V31.5C5 32.0304 5.21072 32.5391 5.58579 32.9142C5.96086 33.2893 6.46957 33.5 7 33.5H29C29.5304 33.5 30.0391 33.2893 30.4142 32.9142C30.7893 32.5391 31 32.0304 31 31.5V26.24C31.0035 25.7326 30.814 25.2429 30.47 24.87ZM29 31.5H7V26.23C8.41723 24.7377 10.1233 23.5493 12.0144 22.7373C13.9054 21.9252 15.942 21.5065 18 21.5065C20.0581 21.5065 22.0946 21.9252 23.9856 22.7373C25.8767 23.5493 27.5828 24.7377 29 26.23V31.5Z" fill="#778899"/>
</g>
<defs>
<clipPath id="clip0_423_9">
<rect width="36" height="36" fill="white" transform="translate(0 0.5)"/>
</clipPath>
</defs>
</svg>
